<svg width="46" height="46" viewBox="0 0 46 46" fill="none" xmlns="http://www.w3.org/2000/svg">
<path d="M24.3417 29.325L29.325 24.3417C29.6764 23.9903 29.8521 23.5431 29.8521 23C29.8521 22.457 29.6764 22.0097 29.325 21.6583L24.2938 16.6271C23.9424 16.2757 23.5035 16.1077 22.977 16.123C22.4493 16.1396 22.0098 16.3236 21.6584 16.675C21.307 17.0264 21.1313 17.4736 21.1313 18.0167C21.1313 18.5597 21.307 19.007 21.6584 19.3583L23.3834 21.0833H17.2021C16.6591 21.0833 16.2118 21.2667 15.8605 21.6334C15.5091 22.0014 15.3334 22.457 15.3334 23C15.3334 23.5431 15.5174 23.998 15.8854 24.3647C16.2521 24.7327 16.707 24.9167 17.25 24.9167H23.3834L21.6105 26.6896C21.2591 27.041 21.091 27.4805 21.1064 28.0083C21.123 28.5347 21.307 28.9736 21.6584 29.325C22.0098 29.6764 22.457 29.8521 23 29.8521C23.5431 29.8521 23.9903 29.6764 24.3417 29.325ZM23 42.1667C20.3487 42.1667 17.857 41.6632 15.525 40.6563C13.1931 39.6507 11.1646 38.2854 9.43962 36.5604C7.71462 34.8354 6.34932 32.807 5.34371 30.475C4.33682 28.1431 3.83337 25.6514 3.83337 23C3.83337 20.3486 4.33682 17.857 5.34371 15.525C6.34932 13.1931 7.71462 11.1646 9.43962 9.43959C11.1646 7.71459 13.1931 6.34865 15.525 5.34176C17.857 4.33615 20.3487 3.83334 23 3.83334C25.6514 3.83334 28.1431 4.33615 30.475 5.34176C32.807 6.34865 34.8355 7.71459 36.5605 9.43959C38.2855 11.1646 39.6508 13.1931 40.6564 15.525C41.6633 17.857 42.1667 20.3486 42.1667 23C42.1667 25.6514 41.6633 28.1431 40.6564 30.475C39.6508 32.807 38.2855 34.8354 36.5605 36.5604C34.8355 38.2854 32.807 39.6507 30.475 40.6563C28.1431 41.6632 25.6514 42.1667 23 42.1667Z" fill="#FA793C"/>
</svg>
